<svg width="112" height="112" viewBox="0 0 112 112" fill="none" xmlns="http://www.w3.org/2000/svg">
<path d="M0 8C0 3.58172 3.58172 0 8 0H104C108.418 0 112 3.58172 112 8V104C112 108.418 108.418 112 104 112H8C3.58172 112 0 108.418 0 104V8Z" fill="#FFDD2D"/>
<path fill-rule="evenodd" clip-rule="evenodd" d="M81.1838 42.7918L80.5309 44.8692C80.1847 45.9462 79.0481 47.7189 76.9331 47.8984C77.1645 48.8689 77.6801 49.959 78.8185 50.4284L80.4575 51.0978L79.5731 52.6273C79.3736 52.9527 78.3444 54.4542 76.1974 54.4542C75.8304 54.4542 75.4748 54.4168 75.1342 54.3458C75.0476 54.7253 74.9404 55.1068 74.8124 55.4864C74.31 56.9729 74.7428 58.007 74.7616 58.05L75.5519 59.7029L73.738 60.1798L73.7353 60.1804C73.6909 60.1919 73.1522 60.3313 72.4998 60.3313C72.1893 60.3313 71.894 60.2994 71.6173 60.234C71.4065 60.1854 71.2033 60.12 71.0095 60.0414C70.7743 60.4584 70.4902 60.838 70.1609 61.1764C69.0055 62.3582 67.3646 62.9566 65.2854 62.9566L63.797 62.9378L66.851 64.2038L64.5685 65.3051C63.7594 65.6978 62.7206 66.2007 61.6707 66.5822L61.9642 67.3732L61.1607 67.7378C61.0893 67.7714 59.5594 68.4503 57.0134 68.5998C57.0134 68.5998 56.4019 68.6297 56.0614 68.6297C55.7208 68.6297 55.1017 68.6017 55.1017 68.6017C52.5405 68.4559 50.9997 67.7705 50.9264 67.7378L50.9262 67.7378L50.1246 67.3751L50.4144 66.586C49.3945 66.2157 48.3916 65.7314 47.5467 65.3219L45.2209 64.2056L48.2843 62.9416L46.8015 62.9602H46.794C44.7166 62.9602 43.0777 62.3619 41.9205 61.182C41.5893 60.8418 41.3051 60.4621 41.0718 60.0452C40.8779 60.1237 40.6766 60.1891 40.4659 60.2377C40.1874 60.3032 39.892 60.335 39.5814 60.335C38.8984 60.335 38.3527 60.1873 38.3301 60.1798L36.5237 59.7067L37.3329 58.0219C37.3385 58.0107 37.7713 56.9748 37.2689 55.4901C37.1409 55.1124 37.0318 54.731 36.9453 54.3495C36.6066 54.4206 36.2546 54.4561 35.8896 54.4579C34.2036 54.4579 33.02 53.4819 32.5157 52.6479L31.6219 51.1015L33.2609 50.4303C34.3974 49.9609 34.9148 48.8727 35.1482 47.9003C33.003 47.7096 31.8834 45.9369 31.5485 44.8674L30.8824 42.7918L33.084 42.8628C33.244 42.861 34.5706 42.8236 35.8538 41.8962C35.8317 41.8983 35.8097 41.9006 35.7877 41.9029L35.7877 41.9029C35.7124 41.9107 35.6374 41.9186 35.5603 41.9186C34.2374 41.9186 32.9541 41.1276 32.4405 39.9925L31.5166 37.9451C32.8827 37.9693 33.7651 37.8123 33.7651 37.8123C33.7648 37.8123 33.7658 37.8122 33.7678 37.8118L33.7679 37.8118C33.8215 37.8027 34.6299 37.6646 35.5603 36.7203C36.2584 36.0135 37.1202 35.6395 38.0535 35.6395C38.4619 35.6395 38.8269 35.7124 39.1393 35.8115C39.0904 35.6451 39.0452 35.4769 39.017 35.3048C38.746 33.577 39.7414 32.2026 39.9427 31.9428L41.593 29.9308L42.6016 32.2924C42.6016 32.2924 42.8538 32.8347 43.3053 33.1002C43.4446 32.4102 43.7814 31.6323 44.504 30.8919C45.8588 29.4951 47.5129 29.2856 48.3784 29.2856C48.7811 29.2856 49.0652 29.3287 49.1593 29.3436L49.2232 29.3549L51.0937 29.7213C50.9826 29.2856 50.7418 28.5303 50.3015 27.8477L49.2177 26.1723L51.9385 26.4808L52.8042 24.6503L54.4883 25.5104L56.0369 23.9865L57.5893 25.5104L59.2678 24.6503L60.1352 26.4808L62.858 26.1723L61.7761 27.8477C61.3358 28.5303 61.0949 29.2876 60.982 29.7233L62.9427 29.3399C63.0123 29.3287 63.2983 29.2856 63.6991 29.2856C64.5647 29.2856 66.2187 29.4932 67.5773 30.8919C68.298 31.6343 68.6348 32.4102 68.7722 33.1002C69.2162 32.8377 69.4687 32.3086 69.4846 32.2753L69.4853 32.2738L70.4921 29.9251L72.1159 31.924C72.1159 31.9222 73.3578 33.3845 73.0606 35.301C73.0343 35.475 72.9871 35.6433 72.9383 35.8097C73.2525 35.7106 73.6175 35.6376 74.0259 35.6376C74.9592 35.6376 75.821 36.0116 76.5172 36.7184C77.4648 37.6802 78.287 37.8048 78.3347 37.812C78.3359 37.8122 78.3366 37.8123 78.3368 37.8123C78.3368 37.8123 79.4019 37.9582 80.5666 37.9432L79.6371 39.9907C79.1234 41.1239 77.842 41.9167 76.5172 41.9167C76.4413 41.9167 76.3663 41.9088 76.2917 41.9009L76.2909 41.9008C76.2697 41.8985 76.2486 41.8963 76.2274 41.8942C77.5145 42.8217 78.8411 42.8591 79.0237 42.8591L81.1838 42.7918ZM51.2141 30.4431L51.2366 30.4376L51.2329 30.4188L51.2141 30.4431Z" fill="white"/>
<path fill-rule="evenodd" clip-rule="evenodd" d="M60.1829 50.9742H48.5747V44.3119C48.5747 43.6667 48.3847 43.0179 48.1608 42.4196H53.3919C53.8886 42.9095 54.376 43.2162 54.8389 43.3844C54.7806 43.6219 54.7016 44.1099 54.9235 44.5979C55.1061 44.9925 55.4354 45.2954 55.9134 45.4974C55.9661 45.9836 56.2765 46.7165 57.1308 47.0382C56.7563 47.414 56.3913 47.7693 56.2445 47.9114L52.7709 47.8572C52.6919 47.8198 52.5583 47.73 52.4981 47.6066C52.4941 47.5967 52.489 47.5894 52.484 47.5822C52.4796 47.5758 52.4753 47.5696 52.4718 47.5618L53.0381 47.6534C53.0459 47.6546 53.0546 47.655 53.063 47.6551C53.0667 47.6552 53.0704 47.6552 53.0739 47.6552C53.1849 47.6552 53.2789 47.5786 53.2978 47.4682C53.3166 47.3429 53.2319 47.2289 53.1096 47.2102L52.4134 47.1017L53.1867 44.4465L52.4547 42.915L51.2806 44.1492L51.2091 46.9092L50.4207 46.7857C50.2984 46.7614 50.1817 46.8493 50.161 46.9727C50.1422 47.0942 50.2249 47.2084 50.3491 47.2308L50.6803 47.2812C50.5637 47.3485 50.4846 47.4009 50.4753 47.4084L50.4094 47.4551L50.3906 47.5374C50.1986 48.3115 50.6314 49.0464 51.1018 49.3755L51.0849 49.4728C51.0642 49.5925 51.0925 49.7083 51.1639 49.8056C51.2336 49.9047 51.337 49.9645 51.4556 49.9851C51.4801 49.9907 51.5064 49.9926 51.5289 49.9926C51.7322 49.9926 51.9091 49.8523 51.958 49.6485C52.133 49.6691 52.2929 49.6728 52.4021 49.6728H52.4943L57.0499 50.4918L57.127 50.4394C57.4883 50.1889 58.8733 49.1867 59.3267 48.8538C59.4509 48.9585 59.5901 49.0557 59.7595 49.1362C59.6108 49.6261 59.6033 50.3796 60.1829 50.9742ZM48.5746 51.423H63.502L63.5001 57.0046C63.5001 58.8521 62.4069 60.1441 60.6851 60.5648L60.9731 59.0727C60.99 58.9848 61.0069 58.882 61.0201 58.7959C61.1028 58.8296 61.1875 58.8576 61.2817 58.8745C61.3889 58.895 61.4886 58.9044 61.5789 58.9044C62.0193 58.9044 62.2751 58.6744 62.4465 58.4781L62.6684 58.2219L62.4878 57.9413C62.4866 57.9395 62.4834 57.9345 62.4784 57.9266C62.4137 57.8255 62.048 57.2541 61.7634 56.855C61.7031 56.7709 61.6448 56.6848 61.5865 56.595L61.5831 56.59C61.2336 56.071 60.797 55.4226 59.9212 55.4226L59.8422 55.4246C59.6991 55.4339 59.5749 55.462 59.4733 55.4994C59.1986 55.3722 58.9126 55.3049 58.6172 55.3049C58.254 55.3049 57.9473 55.404 57.7441 55.4731C57.7254 55.4785 57.7072 55.4841 57.6898 55.4895C57.6531 55.5008 57.6198 55.5111 57.5916 55.5162L55.9508 55.3554C55.9301 55.3516 55.8624 55.3124 55.7814 55.217V55.2076L56.1371 55.0655C56.0374 53.8893 54.9027 53.1657 54.2685 52.9208C54.2404 52.803 54.1839 52.6851 54.0841 52.5898L53.7323 52.2569L53.4219 52.6253L53.2694 52.8142L50.97 51.8755L52.4659 53.7417L51.8751 54.6298C51.6587 54.8579 51.8976 55.0861 51.8976 55.0861L52.5073 55.5049L53.1396 55.2712C53.1521 55.2712 53.1646 55.2733 53.177 55.2753C53.1852 55.2766 53.1934 55.278 53.2016 55.2787C53.1837 55.3321 53.1635 55.4727 53.1445 55.6046C53.1296 55.7083 53.1154 55.8066 53.1038 55.8528L52.0068 55.6377L50.8533 56.2847C50.2606 56.7167 50.1796 57.4328 50.3998 57.9227L50.5277 58.2013L50.7103 58.5939L51.1148 58.4275C51.1205 58.4275 51.1261 58.4257 51.1299 58.4219C50.9851 58.882 51.0452 59.3214 51.303 59.6074L51.5477 59.9123L51.8732 60.3217L52.2307 59.9403C52.3342 59.8355 52.6767 59.456 52.7821 59.1307L52.8592 58.882L52.6842 58.6912L52.6541 58.6576L52.8497 58.3359L54.2817 58.6706L54.6035 58.7435L54.7748 58.4631L54.8688 58.3097C54.8857 58.2779 54.8914 58.2723 54.9573 58.2723C55.0081 58.2723 55.0589 58.2761 55.1135 58.2892C55.6535 58.3901 56.1522 58.4407 56.5944 58.4407C57.0253 58.4407 57.2812 58.4239 57.586 58.3228C57.586 58.3228 58.3556 59.1923 58.382 59.2241L57.9116 60.6695L57.8908 60.7556C56.9989 60.8284 56.5642 61.0229 56.0393 61.5427C55.2772 60.791 54.7371 60.7125 52.6879 60.7125C50.2361 60.7125 48.5746 59.284 48.5746 57.0027V51.423Z" fill="#FFDD2D"/>
<path fill-rule="evenodd" clip-rule="evenodd" d="M59.9631 29.9252C59.1898 29.31 57.7898 28.7342 56.0398 28.7342C54.2917 28.7342 52.8955 29.31 52.1202 29.9252C52.1202 29.9252 51.8907 28.5509 51.106 27.3373L52.5154 27.4963L53.2511 25.9387L54.6699 26.6641L56.0398 25.3141L57.4135 26.6641L58.8303 25.9387L59.568 27.4963L60.9774 27.3373C60.1927 28.5509 59.9631 29.9252 59.9631 29.9252ZM52.8428 28.0834L52.4514 28.0423L52.077 27.9974C52.2482 28.3788 52.3724 28.7435 52.4646 29.0445C53.4543 28.4985 54.7358 28.1881 56.0379 28.1881C57.3457 28.1881 58.629 28.4985 59.615 29.0445C59.7054 28.7435 59.8314 28.3808 60.0026 27.9974L59.6301 28.0423L59.2387 28.0834L59.0731 27.73L58.5744 26.6829L57.6656 27.1522L57.3119 27.3317L57.0296 27.0549L56.0417 26.0826L55.0557 27.0549L54.7734 27.3317L54.4197 27.1522L53.5052 26.6829L53.0122 27.73L52.8428 28.0834ZM53.3584 53.8447C53.2737 53.8372 53.2023 53.9026 53.1966 53.9849C53.1909 54.0709 53.2549 54.1438 53.3415 54.1457C53.4242 54.1532 53.4976 54.0896 53.5051 54.0055C53.5051 53.9232 53.4449 53.8466 53.3584 53.8447ZM63.4837 63.9624L62.6238 63.6351L62.8608 62.7525L63.1224 61.7896C63.1224 61.7896 61.5983 62.6104 59.4512 63.2275C58.8415 63.4014 58.3805 63.4799 58.3805 63.4799V64.1344C58.3805 64.1344 57.2327 64.3326 56.0717 64.3326H56.0585H56.0416H56.019H56.0059C54.8448 64.3326 53.697 64.1344 53.697 64.1344V63.4799C53.697 63.4799 53.2341 63.4014 52.6263 63.2275C50.4793 62.6104 48.9571 61.7896 48.9571 61.7896L49.2148 62.7525L49.4576 63.6351L48.5958 63.9624L47.6398 64.3176C47.7531 64.3719 47.8709 64.4287 47.9927 64.4875C49.0492 64.9973 50.399 65.6487 51.6459 65.9874L51.3186 66.8774C51.3186 66.8774 53.0817 67.6759 56.019 67.6834V67.6853H56.0285H56.0416H56.0529H56.0605V67.6834C59.0015 67.6759 60.7627 66.8774 60.7627 66.8774L60.4335 65.9874C61.6978 65.644 63.071 64.9791 64.1302 64.4662L64.134 64.4644C64.2384 64.4138 64.3398 64.3647 64.4377 64.3176L63.4837 63.9624ZM48.6597 64.3775L50.0748 63.91L49.657 62.5543C50.2798 62.9058 51.6779 63.4331 52.487 63.6781L51.804 65.5424C50.5546 65.2001 49.514 64.8019 48.6597 64.3775ZM56.0416 67.216C54.3989 67.216 52.5228 66.84 51.9715 66.6456L52.8107 64.3886C53.507 64.5906 54.9559 64.8057 56.0077 64.7982H56.0096H56.0416H56.0698H56.0736C57.1255 64.8057 58.5706 64.5906 59.2706 64.3886L60.1079 66.6456C59.5566 66.842 57.6824 67.216 56.0416 67.216ZM60.2754 65.5424L59.5943 63.6781C60.4053 63.4331 61.7996 62.9058 62.4243 62.5543L62.0085 63.91L63.4216 64.3775C62.5654 64.8019 61.5305 65.2001 60.2754 65.5424ZM76.5707 46.971C78.8344 46.971 79.5908 44.6822 79.6228 44.5849L79.875 43.779L79.0263 43.8053H79.0226C78.7234 43.8053 76.2264 43.7398 74.4556 41.5035L74.2882 41.2959L74.2822 41.2884C73.1272 39.8289 72.0306 38.4432 70.0732 37.8104C70.1297 37.76 70.2106 37.6963 70.3216 37.6253C71.3621 36.9447 71.9681 36.1182 72.1205 35.159C72.3425 33.7154 71.4167 32.5654 71.3753 32.5187L70.7449 31.7446L70.3517 32.6627L70.3514 32.6633C70.3207 32.7311 69.658 34.1904 68.2705 34.1904H68.167C68.1377 34.1887 68.1089 34.1871 68.0805 34.1856L68.08 34.1855C68.0156 34.1821 67.953 34.1787 67.8904 34.1736C67.9394 33.5172 67.8189 32.5018 66.8932 31.5501C65.7811 30.4038 64.415 30.2318 63.6999 30.2318C63.3498 30.2318 63.1072 30.2711 63.0489 30.2805C63.0436 30.2814 63.0398 30.282 63.0376 30.2823L62.0855 30.4693L62.6725 31.2378C63.1336 31.8306 63.5513 32.9244 63.0564 33.4967C62.9064 33.6686 62.6059 33.8104 62.3088 33.9506C62.2927 33.9582 62.2765 33.9658 62.2604 33.9734C61.6188 34.267 60.7438 34.6746 60.7438 35.7143C60.7438 36.3874 61.2688 37.0906 62.2209 37.6889C65.0397 39.4503 66.7784 41.2884 67.5291 43.3172C68.6902 46.438 67.1755 48.2182 65.7039 49.1549L65.0434 49.5775L65.6211 50.1049L65.6217 50.1054C65.702 50.1754 66.4085 50.7913 67.4501 50.8809C67.6477 50.894 67.8377 50.9052 68.0146 50.9052C68.6845 50.9052 69.2547 50.8004 69.7176 50.6602C69.5897 50.8827 69.4334 51.109 69.2359 51.3372C68.3948 52.3057 67.3598 52.747 65.8713 52.7694L65.3182 52.7788L65.2749 53.3304C65.2692 53.4407 65.2279 54.4635 66.2025 55.333C66.3513 55.4677 66.5319 55.578 66.7201 55.6696C66.0596 56.2605 65.3878 57.2889 65.258 59.0523C65.1488 60.5238 64.7951 61.068 64.7913 61.0736L64.1797 62.001L65.2843 62.016C67.1095 62.016 68.5076 61.5148 69.4767 60.5238C70.0487 59.9366 70.3762 59.2747 70.57 58.6876C70.888 58.9569 71.2982 59.1924 71.8326 59.3177C72.0359 59.3645 72.2578 59.3907 72.4968 59.3907C72.9867 59.3907 73.4001 59.2928 73.4821 59.2734C73.4864 59.2723 73.4898 59.2715 73.4923 59.271L74.1979 59.084L73.8856 58.4296L73.8845 58.4272C73.849 58.3456 73.2816 57.042 73.9081 55.1909C74.181 54.3812 74.3202 53.6558 74.388 53.0911C74.832 53.321 75.4266 53.5118 76.1962 53.5136C77.8935 53.5136 78.6681 52.2895 78.743 52.1711C78.7452 52.1677 78.7468 52.1652 78.7478 52.1636L79.0922 51.5689L78.4543 51.3072C76.3731 50.4489 75.9121 48.1434 75.8199 46.8943C76.0081 46.9298 76.2225 46.9635 76.4653 46.971H76.5707ZM78.221 51.8588C78.221 51.8588 77.6113 52.9116 76.2132 52.9116H76.1962C74.5177 52.9022 73.8404 51.8849 73.8404 51.8849C73.8404 51.8849 73.9382 53.2089 73.3323 54.9946C72.6041 57.1468 73.338 58.6857 73.338 58.6857C73.338 58.6857 72.9466 58.7905 72.4949 58.7905C72.3219 58.7905 72.1412 58.7736 71.9718 58.7288C70.57 58.3978 70.22 57.13 70.22 57.13C70.22 57.13 70.3498 61.4139 65.3238 61.4139H65.2843C65.2843 61.4139 65.7265 60.8155 65.8582 59.0933C66.0972 55.9145 68.2631 55.4788 68.2631 55.4788C68.2631 55.4788 67.1077 55.3349 66.6071 54.888C65.8243 54.1831 65.8789 53.3678 65.8789 53.3678C67.6477 53.3435 68.805 52.7451 69.6874 51.7298C70.6434 50.6303 70.8015 49.4467 70.8015 49.4467C70.8015 49.4467 69.8511 50.3031 68.0127 50.3031C67.8509 50.3031 67.6779 50.2956 67.501 50.2788C66.6316 50.2096 66.0295 49.6598 66.0295 49.6598C67.9431 48.4406 69.2866 46.3127 68.0956 43.1078C67.1415 40.5404 64.8496 38.6219 62.5427 37.1765C61.7749 36.6998 61.3478 36.1705 61.3478 35.7143C61.3478 35.0568 61.924 34.7895 62.5154 34.5151C62.8894 34.3415 63.2695 34.1652 63.5137 33.8855C64.24 33.0479 63.7846 31.6884 63.1542 30.8713C63.1542 30.8713 63.3669 30.8283 63.7018 30.8283C64.366 30.8283 65.5157 30.9947 66.4604 31.967C67.7155 33.2573 67.1942 34.6616 67.1942 34.6616L67.5311 34.727C67.7242 34.7683 67.9157 34.7768 68.1138 34.7857L68.1388 34.7868C68.1614 34.7868 68.184 34.7873 68.2066 34.7878C68.2291 34.7883 68.2517 34.7887 68.2743 34.7887C70.0976 34.7887 70.9124 32.8945 70.9124 32.8945C70.9124 32.8945 72.8506 35.2637 69.9979 37.1185C69.5068 37.4365 69.2905 37.7301 69.3469 38.0441L69.392 38.2499L69.5952 38.2854C71.573 38.8183 72.6163 40.1379 73.8211 41.6619C73.8761 41.7315 73.9314 41.8014 73.9872 41.8718C75.9271 44.3232 78.6725 44.4017 79.0113 44.4017H79.047C79.047 44.4017 78.4204 46.3669 76.5745 46.3669H76.5744L76.5635 46.3669L76.5538 46.3669C76.549 46.3669 76.5442 46.3669 76.5394 46.3668C76.5362 46.3668 76.533 46.3668 76.5297 46.3667C76.5158 46.3665 76.5016 46.366 76.4861 46.3651C75.6374 46.3352 75.2027 46.0117 75.2027 46.0117C75.2027 46.0117 74.8696 50.4751 78.221 51.8588ZM74.3618 39.6336C73.9309 39.1025 73.4398 38.5042 72.5949 38.0573L71.7256 37.5916L72.5309 37.0289C72.5341 37.0269 72.5386 37.0241 72.5443 37.0205L72.5445 37.0204C72.6578 36.9493 73.2461 36.5801 74.0268 36.5801C74.6986 36.5801 75.3215 36.8549 75.8371 37.3767C77.0902 38.65 78.2155 38.7511 78.2569 38.7529L79.1319 38.8053L78.7706 39.6018C78.4112 40.3965 77.4629 40.9706 76.5182 40.9706C76.2774 40.9706 76.0402 40.935 75.8163 40.8584C75.195 40.6532 74.7944 40.1629 74.3762 39.6513L74.3618 39.6336ZM75.4061 37.8011C74.9414 37.3243 74.4502 37.1822 74.0287 37.1822C73.374 37.1822 72.8809 37.5263 72.8809 37.5263C73.8332 38.0292 74.376 38.697 74.8319 39.2578C75.2201 39.7352 75.5452 40.1352 76.0064 40.2899C76.1776 40.3479 76.3488 40.3741 76.5201 40.3741C77.2596 40.3741 77.9746 39.8972 78.2212 39.355C78.2212 39.355 76.8644 39.2727 75.4061 37.8011ZM72.9898 46.0024V46.0323C72.4818 41.9597 69.5049 39.0184 66.1932 37.2289C65.8864 37.0662 65.6042 36.9279 65.3295 36.7951C66.3381 36.9503 67.9619 36.969 69.2152 35.8883C69.2152 35.8883 67.2977 37.2906 63.3688 36.0173C63.6842 36.2206 64.0858 36.4482 64.5441 36.7079L64.5442 36.7079C65.6665 37.3438 67.1288 38.1723 68.4983 39.3101C73.321 43.5211 69.87 47.6292 69.87 47.6292C71.603 45.8322 71.6746 43.9063 71.1646 42.3337C72.0772 43.8427 72.6605 45.6751 72.5703 47.934C72.4366 51.1707 70.6471 53.97 68.7635 56.2194C67.8585 57.3114 67.6552 58.6521 67.6552 58.6521C67.6552 58.6521 68.0203 57.4685 69.0684 56.2512C71.0874 53.9026 72.813 51.4624 73.0387 47.9471C73.2476 48.5847 74.1076 50.3592 75.4718 51.0267L75.4713 51.0264C75.4393 51.0066 73.7531 49.9597 72.9898 46.0024ZM47.2859 61.0681C47.2871 61.0701 47.2877 61.0713 47.2878 61.0715L47.9013 61.9971L46.7948 62.0121C44.9696 62.0121 43.5734 61.5109 42.6024 60.52C42.0323 59.9327 41.7029 59.2708 41.511 58.6837C41.1967 58.953 40.7828 59.1885 40.2465 59.3138C40.047 59.3606 39.8251 59.3868 39.5841 59.3868C39.0848 59.3868 38.66 59.2843 38.5935 59.2682L38.5935 59.2682L38.5887 59.2671L37.8813 59.0801L38.1936 58.4257L38.1948 58.4231C38.2311 58.3396 38.7989 57.0367 38.1728 55.187C37.9 54.3774 37.7608 53.6519 37.693 53.0872C37.2471 53.3171 36.6524 53.5079 35.8885 53.5097C34.1644 53.5097 33.3901 52.2521 33.3352 52.1629L33.3332 52.1597L32.9888 51.565L33.6249 51.3033C35.7079 50.4431 36.1689 48.1376 36.263 46.8904C36.071 46.9278 35.8565 46.9596 35.6175 46.9671L35.5084 46.9708C33.2428 46.9708 32.4882 44.6821 32.4582 44.5848L32.1985 43.7789L33.0509 43.8051C33.3501 43.8051 35.8528 43.7397 37.6216 41.5033L37.7891 41.2957L37.803 41.2782C38.9551 39.8224 40.0492 38.4398 42.0003 37.8084C41.9438 37.7579 41.8648 37.6943 41.7518 37.6233C40.7113 36.9427 40.1054 36.1162 39.9548 35.1569C39.734 33.7472 40.6178 32.6147 40.6907 32.5214L40.6943 32.5167L41.3304 31.7425L41.7237 32.6606L41.7241 32.6615C41.7562 32.7323 42.417 34.1883 43.8067 34.1883H43.9083C43.9367 34.1866 43.9648 34.1851 43.9926 34.1836C44.0569 34.1801 44.12 34.1767 44.1831 34.1715C44.136 33.5171 44.2582 32.5017 45.186 31.5481C46.2999 30.4019 47.6623 30.2298 48.3773 30.2298C48.7213 30.2298 48.958 30.2674 49.0237 30.2778C49.0314 30.279 49.0367 30.2799 49.0396 30.2802L49.9955 30.4672L49.4048 31.2357C48.9456 31.8285 48.526 32.9243 49.0227 33.4946C49.1724 33.6665 49.4725 33.808 49.7693 33.9481C49.7858 33.9559 49.8023 33.9637 49.8187 33.9714C50.4604 34.2631 51.3335 34.6727 51.3335 35.7123C51.3335 36.3854 50.8122 37.0885 49.8601 37.6868C47.0376 39.4483 45.3008 41.2863 44.5499 43.3152C43.3908 46.4341 44.9 48.2143 46.3771 49.153L47.0376 49.5756L46.4599 50.1028C46.3809 50.172 45.6733 50.7891 44.6289 50.8788C44.4314 50.8919 44.2451 50.9031 44.0644 50.9031C43.3927 50.9031 42.8263 50.7984 42.3634 50.6582C42.4913 50.8807 42.6495 51.107 42.8451 51.3351C43.6862 52.3018 44.7231 52.7431 46.2077 52.7674L46.7647 52.7768L46.8023 53.3284C46.808 53.4387 46.8493 54.4616 45.8765 55.331C45.7279 55.4676 45.551 55.5778 45.3591 55.6676C46.0214 56.2585 46.6913 57.2869 46.823 59.0502C46.9314 60.462 47.2579 61.0202 47.2859 61.0681ZM41.8554 57.1299C41.8554 57.1299 41.7274 61.4137 46.7534 61.4137H46.7892C46.7892 61.4137 46.3508 60.8154 46.2209 59.0932C45.9838 55.9144 43.8161 55.4787 43.8161 55.4787C43.8161 55.4787 44.9715 55.3329 45.4739 54.8878C46.2566 54.1829 46.2002 53.3676 46.2002 53.3676C44.4314 53.3433 43.2742 52.7449 42.386 51.7296C41.4357 50.6301 41.2777 49.4465 41.2777 49.4465C41.2777 49.4465 42.2279 50.303 44.0644 50.303C44.2301 50.303 44.4013 50.2955 44.5782 50.2786C45.4494 50.2094 46.0516 49.6597 46.0516 49.6597C44.1341 48.4387 42.7924 46.3126 43.9817 43.1077C44.9338 40.5403 47.2257 38.6218 49.5345 37.1764C50.3023 36.6995 50.7294 36.1686 50.7294 35.7141C50.7294 35.0562 50.1531 34.7882 49.5623 34.5135C49.1893 34.3401 48.8106 34.164 48.5674 33.8854C47.841 33.0477 48.2964 31.6902 48.9248 30.8712C48.9248 30.8712 48.716 30.8281 48.3792 30.8281C47.7169 30.8281 46.5672 30.9927 45.6225 31.9669C44.3655 33.2571 44.8868 34.6614 44.8868 34.6614L44.5499 34.7269C44.369 34.7659 44.185 34.7757 43.9992 34.7855C43.9802 34.7865 43.9612 34.7876 43.9421 34.7886C43.9306 34.7886 43.9194 34.7887 43.9084 34.7889C43.8968 34.789 43.8854 34.7893 43.8741 34.7895L43.874 34.7895C43.8523 34.79 43.8309 34.7904 43.8086 34.7904C41.9814 34.7904 41.1704 32.8982 41.1704 32.8982C41.1704 32.8982 39.2323 35.2653 42.085 37.1221C42.576 37.4401 42.7906 37.7336 42.7341 38.0478L42.689 38.2534L42.482 38.289C40.5045 38.8246 39.4595 40.1461 38.2519 41.6733C38.199 41.7402 38.1457 41.8076 38.092 41.8754C36.1519 44.3268 33.4103 44.4053 33.0698 44.4053H33.0321C33.0321 44.4053 33.6568 46.3706 35.5046 46.3706C35.5347 46.3706 35.563 46.3706 35.5931 46.3687C36.4436 46.3369 36.8783 46.0153 36.8783 46.0153C36.8783 46.0153 37.2076 50.4768 33.8582 51.8587C33.8582 51.8587 34.4678 52.9114 35.8659 52.9114H35.8829C37.5632 52.902 38.2388 51.8848 38.2388 51.8848C38.2388 51.8848 38.1409 53.2087 38.743 54.9945C39.4713 57.1467 38.7411 58.6856 38.7411 58.6856C38.7411 58.6856 39.1307 58.7902 39.5823 58.7902C39.7573 58.7902 39.936 58.7734 40.1035 58.7286C41.5053 58.3976 41.8554 57.1299 41.8554 57.1299ZM35.5594 40.9725C35.8021 40.9725 36.0393 40.937 36.2632 40.8603C36.8857 40.656 37.2838 40.1688 37.7001 39.6595L37.7196 39.6356L37.7205 39.6345C38.1531 39.1037 38.6403 38.5059 39.4847 38.0593L40.354 37.5956L39.5468 37.0327L39.5438 37.0308L39.539 37.0277C39.4413 36.965 38.8477 36.5839 38.0545 36.5839C37.3809 36.5839 36.7562 36.857 36.2425 37.3805C34.9893 38.652 33.8659 38.7549 33.8245 38.7567L32.9496 38.8072L33.3089 39.6056C33.6702 40.3967 34.6167 40.9725 35.5594 40.9725ZM36.6734 37.8031C37.1401 37.3263 37.6312 37.1842 38.0545 37.1842C38.7056 37.1842 39.1987 37.5282 39.1987 37.5282C38.2494 38.0311 37.7067 38.697 37.2506 39.2568C36.8604 39.7356 36.5335 40.1367 36.0694 40.292C35.9038 40.3498 35.7307 40.3761 35.5594 40.3761C34.8199 40.3761 34.1049 39.9011 33.8603 39.3569C33.8603 39.3569 33.8604 39.3569 33.8606 39.3569L33.8623 39.3567L33.8652 39.3564L33.8654 39.3564C33.9573 39.3474 35.2673 39.2203 36.6734 37.8031ZM40.9126 42.3358C39.9981 43.8447 39.4148 45.6772 39.5089 47.9359C39.6406 51.1727 41.4301 53.9739 43.3099 56.2195C44.2187 57.3116 44.4239 58.6523 44.4239 58.6523C44.4239 58.6523 44.055 57.4686 43.0069 56.2513C40.9879 53.9027 39.2624 51.4626 39.0347 47.9472C38.8258 48.5867 37.9678 50.3594 36.6054 51.0269C36.6054 51.0269 38.3177 50.0003 39.0874 46.0007V46.0324C39.5973 41.9599 42.5723 39.0185 45.8878 37.229C46.1759 37.0744 46.4486 36.9417 46.7093 36.8149L46.7496 36.7953C45.7411 36.9524 44.1171 36.971 42.8639 35.8902C42.8639 35.8902 44.7814 37.2927 48.7084 36.0192C48.3925 36.2233 47.9898 36.4517 47.53 36.7125C46.4094 37.348 44.9497 38.1759 43.5808 39.3121C38.7562 43.5231 42.2072 47.6312 42.2072 47.6312C40.4723 45.8343 40.4026 43.9083 40.9126 42.3358ZM54.9053 39.6954V40.5032C55.1856 40.1647 55.7276 40.2339 55.7276 40.2339V41.3988C55.7276 41.3988 55.7087 41.971 55.5037 42.2197H56.0908H56.676C56.4746 41.9728 56.4539 41.3988 56.4539 41.3988V40.2339C56.4539 40.2339 56.9958 40.1647 57.2743 40.5032V39.6954H56.0908H54.9053ZM54.9878 35.2502C54.9382 35.2338 54.731 35.1651 54.4008 34.9047C53.7817 34.426 53.7686 33.9866 53.7686 33.9848L55.146 34.5607V35.3217L54.9992 35.2543C54.9983 35.2537 54.9945 35.2524 54.9879 35.2502L54.9878 35.2502ZM57.6769 34.9047C58.2997 34.426 58.311 33.9848 58.311 33.9848L56.9336 34.5607V35.3217L57.0785 35.2543C57.0795 35.2537 57.0828 35.2527 57.0885 35.2508C57.1358 35.2355 57.3427 35.1684 57.6769 34.9047ZM56.0453 29.6148C58.2036 29.6148 60.1587 30.6526 60.1587 31.8063L60.1173 32.0906L59.2555 37.0064L60.1173 37.5057L62.3565 38.8053H62.349C62.349 38.8053 62.8533 39.0615 63.0829 39.2204C63.9409 39.8094 64.1197 40.6676 63.6248 41.023C63.5006 40.3217 62.9455 39.5906 61.9031 39.5906C61.1522 39.5906 60.5821 39.9739 60.1155 40.5536C59.9988 40.6995 59.8877 40.8546 59.7805 41.023C59.6507 41.2342 59.5209 41.4213 59.3929 41.5988H65.1621C64.7369 42.4459 64.3342 43.3434 64.3342 44.3177V57.0029C64.3342 60.0733 61.9614 61.5392 59.3891 61.5392C59.2365 61.5392 59.0941 61.5387 58.9606 61.5382C57.3543 61.5321 57.0492 61.531 56.0416 62.534C55.0273 61.5313 54.7224 61.5324 53.1117 61.5383C52.9803 61.5387 52.8402 61.5392 52.6903 61.5392C50.1199 61.5392 47.7433 60.0733 47.7433 57.0029V44.3177C47.7433 43.3434 47.3407 42.4459 46.9173 41.5988H52.6846C52.5548 41.4193 52.425 41.2342 52.2951 41.023C52.1897 40.8546 52.0769 40.6995 51.9583 40.5536C51.4954 39.9758 50.9234 39.5906 50.1726 39.5906C49.1302 39.5906 48.5731 40.3236 48.4508 41.023C47.9559 40.6676 48.1366 39.8094 48.989 39.2204C49.2224 39.0615 49.7266 38.8053 49.7266 38.8053H49.7191L51.9583 37.5057L52.8238 37.0064L51.9621 32.0906L51.9188 31.8063C51.9188 30.6526 53.8739 29.6148 56.0321 29.6148H56.0378H56.0435H56.0453ZM55.797 33.3995L52.7674 32.3785L53.5672 36.9597L55.797 38.1284V33.3995ZM54.8411 43.3883C54.3782 43.22 53.8908 42.9152 53.394 42.4235V42.4272H48.1629C48.3868 43.0256 48.5769 43.6744 48.5769 44.3195V50.9782H60.1869C59.6055 50.3836 59.6149 49.6299 59.7617 49.14C59.5923 49.0597 59.4531 48.9625 59.3289 48.8558C58.8754 49.1869 57.4924 50.1891 57.1292 50.4415L57.0521 50.492L52.4965 49.6748H52.4043C52.2951 49.6748 52.1352 49.6711 51.9601 49.6505C51.9094 49.8543 51.7325 49.9946 51.5293 49.9946C51.5067 49.9946 51.4803 49.9928 51.4559 49.989C51.3392 49.9684 51.2338 49.9086 51.1661 49.8094C51.0946 49.7122 51.0683 49.5963 51.087 49.4766L51.104 49.3794C50.6355 49.0503 50.2008 48.3155 50.3927 47.5414L50.4116 47.4591L50.4793 47.4123C50.4887 47.4048 50.5659 47.3525 50.6844 47.2852L50.3532 47.2347C50.229 47.2122 50.1462 47.0982 50.1651 46.9767C50.1857 46.855 50.3025 46.7653 50.4247 46.7897L51.2132 46.913L51.2847 44.1531L52.4588 42.919L53.1908 44.4505L52.4175 47.1037L53.1137 47.2122C53.236 47.2309 53.3207 47.345 53.3018 47.4702C53.283 47.5824 53.1871 47.6572 53.0779 47.6572H53.0779C53.0666 47.6572 53.0553 47.6572 53.0422 47.6554L52.4757 47.5638C52.479 47.5745 52.4841 47.5821 52.4893 47.5899C52.4932 47.5957 52.497 47.6015 52.5002 47.6087C52.5604 47.7339 52.6941 47.8218 52.7731 47.8611L56.2448 47.9153L56.2543 47.9062C56.4085 47.7567 56.7662 47.4102 57.1329 47.042C56.2768 46.7186 55.9682 45.9875 55.9155 45.5013C55.4395 45.2993 55.1083 44.9964 54.9257 44.6038C54.7018 44.1157 54.7808 43.6258 54.8411 43.3883ZM56.9485 50.0114C57.3776 49.7122 58.5631 48.8521 59.024 48.5155C58.6891 48.0294 58.6572 47.4534 58.7324 47.0495C58.5141 46.9093 58.3467 46.7503 58.213 46.5839C57.7201 47.118 56.8126 47.9966 56.5599 48.2412C56.5242 48.2758 56.5016 48.2977 56.495 48.3042L56.4292 48.3715L52.95 48.3155C52.9462 48.6576 52.8916 48.9493 52.837 49.1625C52.8323 49.1813 52.8276 49.1996 52.8229 49.218C52.8182 49.2361 52.8135 49.2542 52.8089 49.2728L56.9485 50.0114ZM52.4908 48.2201C52.3685 48.1434 52.1917 48.007 52.0938 47.8031C51.9809 47.5675 51.8209 47.4571 51.5857 47.4591C51.2809 47.4591 50.9553 47.6404 50.8142 47.7264C50.7013 48.379 51.1868 48.9718 51.5123 49.0915C51.8058 49.198 52.1653 49.2205 52.3478 49.2205C52.3554 49.198 52.3648 49.17 52.3741 49.1363C52.3911 49.0821 52.4061 49.0278 52.4175 48.9699C52.4682 48.7081 52.4871 48.4108 52.4908 48.2201ZM51.7325 44.3326L51.6629 46.9822L51.9658 47.0271L52.7072 44.4841L52.3309 43.7025L51.7325 44.3326ZM58.3636 60.7296C58.5517 60.7221 58.7606 60.7183 58.9864 60.7183C58.9864 60.7183 59.5264 59.1496 59.5585 59.1009C59.2555 58.9682 58.627 58.6372 58.3842 58.4857C58.4363 58.563 58.5126 58.6438 58.5893 58.7249C58.7482 58.8932 58.9086 59.063 58.8566 59.2056L58.3636 60.7296ZM60.2114 60.6548L60.5332 58.9868C60.569 58.8036 60.6028 58.5605 60.6028 58.5568C60.5846 58.5385 60.5627 58.5172 60.538 58.4931C60.3934 58.3527 60.1528 58.119 60.0082 57.8443C59.8894 57.6161 59.8669 57.4447 59.8416 57.2516C59.8189 57.0778 59.7938 56.8863 59.6939 56.6196C59.6939 56.6196 59.7598 56.4887 59.9085 56.4887C59.931 56.4887 59.9573 56.4906 59.9818 56.498C60.1776 56.5536 60.3112 56.8836 60.4622 57.2562C60.6667 57.7612 60.9031 58.3446 61.3686 58.4296C61.4477 58.4446 61.5211 58.4502 61.585 58.4502C61.8184 58.4502 61.9577 58.353 62.1081 58.1753C62.1081 58.1753 61.7017 57.5396 61.3969 57.1114C61.3329 57.0223 61.2711 56.9303 61.2096 56.8386C60.8824 56.3512 60.5605 55.8717 59.9254 55.8717C59.9066 55.8717 59.8859 55.8717 59.8671 55.8735C59.6186 55.8866 59.4663 56.0063 59.4663 56.0063C59.1614 55.8155 58.8754 55.7501 58.6195 55.7501C58.3302 55.7501 58.08 55.8314 57.8874 55.894C57.7668 55.9332 57.6687 55.9651 57.5977 55.9651H57.5902L55.9079 55.8005C55.6445 55.7763 55.4375 55.5126 55.3623 55.4097C55.3435 55.3817 55.3341 55.3649 55.3341 55.3649C55.3341 55.32 55.3341 55.2733 55.3303 55.2322C55.2738 53.8671 54.2088 53.2818 53.8287 53.2725C53.8287 53.2725 53.872 53.0125 53.7704 52.9135L53.3997 53.3604L52.1822 52.7527L53.0516 53.7605L52.3159 54.5796C52.2217 54.673 52.2349 54.7983 52.2725 54.8525L52.5905 55.1311L52.9932 54.8881C53.0139 54.8731 53.0516 54.8693 53.0949 54.8693C53.1462 54.8693 53.2095 54.8753 53.2777 54.8818C53.357 54.8893 53.4429 54.8974 53.5238 54.8974C53.6895 54.8974 53.8306 54.8638 53.8475 54.7104C53.8322 54.8631 53.7786 55.0498 53.7197 55.255C53.5832 55.7308 53.418 56.3064 53.6349 56.7898L53.8664 57.3133L52.3798 57.1001L51.6836 58.2688C51.4672 58.6577 51.4333 59.0766 51.6403 59.3066L51.9019 59.6301C51.9019 59.6301 52.2669 59.2468 52.3478 58.9925L52.2292 58.8635C52.1295 58.755 52.1333 58.6559 52.1954 58.54L52.632 57.8219L54.3875 58.2333L54.4816 58.0762C54.6002 57.878 54.7714 57.8201 54.9596 57.8201C55.0367 57.8201 55.1158 57.8294 55.1985 57.8425C55.5242 57.906 56.0604 57.9921 56.5967 57.9921C57.1838 57.9921 57.769 57.8892 58.0795 57.5414C58.4053 58.0214 58.9026 58.2943 59.2964 58.5104C59.6713 58.716 59.9524 58.8703 59.9028 59.1027L59.5641 60.7071C59.788 60.6978 60.0063 60.6829 60.2114 60.6548ZM51.5763 57.6013L51.4992 57.4087C51.4427 57.2833 51.4502 57.1469 51.5556 57.074L52.1842 56.642L53.2341 56.8421C53.2341 56.8421 53.044 56.6064 53.0628 56.2904L52.0618 56.0792L51.1172 56.6513C50.7107 56.9524 50.6825 57.4442 50.8161 57.7359L50.9422 58.0089C50.9422 58.0089 51.5255 57.7695 51.5763 57.6013ZM60.9792 59.071L60.6912 60.5632C62.413 60.1424 63.5062 58.8522 63.5044 57.001L63.5006 51.4232H48.5751V57.001C48.5751 59.2822 50.2366 60.7108 52.6884 60.7108C54.7376 60.7108 55.2777 60.7894 56.0397 61.5411C56.5646 61.0194 56.9994 60.8249 57.8912 60.7539L57.912 60.666L58.3824 59.2224C58.3561 59.1888 57.5865 58.3211 57.5865 58.3211C57.2797 58.4221 57.0238 58.4389 56.5948 58.4389C56.1526 58.4389 55.6539 58.3884 55.1139 58.2875C55.0593 58.2763 55.0086 58.2707 54.9577 58.2707C54.8919 58.2707 54.8862 58.2763 54.8693 58.3081L54.7752 58.4614L54.6039 58.7418L54.2822 58.669L52.8502 58.3342L52.6545 58.6559L52.6827 58.6895L52.8578 58.8803L52.7806 59.129C52.6752 59.4543 52.3346 59.8339 52.2292 59.9386L51.8717 60.32L51.5462 59.9106L51.3016 59.6039C51.0419 59.316 50.9836 58.8784 51.1285 58.4184C51.1261 58.4207 51.123 58.4223 51.1196 58.4237C51.1176 58.4245 51.1156 58.4252 51.1135 58.4258L50.7107 58.5923L50.5282 58.1996L50.4002 57.921C50.1801 57.4311 50.261 56.715 50.8537 56.283L52.0073 55.636L53.1043 55.8511C53.1162 55.8035 53.1309 55.7004 53.1462 55.5931C53.1646 55.4641 53.1838 55.329 53.2002 55.277C53.1921 55.2762 53.1842 55.2749 53.1762 55.2736C53.1641 55.2716 53.1518 55.2696 53.1381 55.2696L52.5059 55.5033L51.8962 55.0863C51.8962 55.0863 51.6572 54.8582 51.8736 54.6301L52.4645 53.7418L50.9685 51.8757L53.268 52.8144L53.4204 52.6255L53.7309 52.2553L54.0846 52.5881C54.1844 52.6835 54.2408 52.8013 54.269 52.9191C54.9031 53.164 56.0397 53.8877 56.1394 55.0638L55.7838 55.2059V55.2134C55.8647 55.3107 55.9324 55.3499 55.9531 55.3537L57.5958 55.5145C57.624 55.5094 57.6573 55.4991 57.6941 55.4878C57.7114 55.4824 57.7296 55.4768 57.7483 55.4714C57.9515 55.4023 58.2582 55.3032 58.6214 55.3032C58.9168 55.3032 59.2009 55.3686 59.4775 55.4977C59.5773 55.4603 59.7015 55.4322 59.8464 55.4229L59.9254 55.421C60.8033 55.421 61.2418 56.0723 61.5915 56.5919L61.5925 56.5934C61.6509 56.685 61.7092 56.7692 61.7694 56.8533C62.078 57.2833 62.477 57.9117 62.4939 57.9397L62.6746 58.2202L62.4525 58.4763C62.2813 58.6727 62.0253 58.9027 61.585 58.9027C61.4948 58.9027 61.395 58.8934 61.2878 58.8728C61.1937 58.856 61.1071 58.8279 61.0262 58.7942C61.013 58.8803 60.9942 58.9831 60.9792 59.071ZM63.5006 44.3158C63.5006 43.6707 63.6906 43.0219 63.9184 42.4235V42.4216H58.6928C57.8912 43.2107 57.1217 43.5043 56.4349 43.5716C56.3107 43.5846 56.1846 43.5921 56.0567 43.5921H56.0472H56.0397C55.9118 43.5921 55.7838 43.5846 55.6596 43.5716C55.5391 43.5622 55.4131 43.5417 55.287 43.5136C55.2419 43.6913 55.1835 44.0615 55.3473 44.4149C55.4921 44.7346 55.7876 44.9721 56.2185 45.131L56.3633 45.1872L56.3653 45.3423C56.3653 45.3891 56.3991 46.3969 57.5018 46.6755C57.6805 46.4923 57.8442 46.3241 57.9665 46.1856C57.7408 45.6583 57.8593 45.1199 58.1867 44.8561C58.1735 44.9104 58.0286 46.2325 59.0936 46.7223L59.2687 46.8046L59.216 46.9916C59.1972 47.0458 58.8434 48.3248 60.1324 48.7997L60.3601 48.8857L60.2584 49.1064C60.234 49.155 59.7297 50.3144 60.9208 50.9725H63.5025V48.9344C62.5842 48.8222 62.1947 48.0892 62.0949 47.5693C61.6678 47.4965 61.3385 47.3132 61.1109 47.0141C60.6279 46.3824 60.9461 45.7983 61.0249 45.6536C61.0344 45.6362 61.0404 45.6252 61.0412 45.6211C61.0394 45.6358 61.044 46.3212 61.4702 46.7448C61.6829 46.9504 61.9351 47.1112 62.3151 47.1468L62.5033 47.1636L62.5203 47.3544C62.524 47.3954 62.6275 48.3323 63.5025 48.4781L63.5006 44.3158ZM60.9152 38.8053L59.8953 38.2162L58.8453 37.6198L56.0453 39.1343L56.0378 39.1288L56.0321 39.1343L53.2322 37.6198L52.1842 38.2162L51.1642 38.8053H51.153L50.8932 38.9529C51.4709 39.11 51.9094 39.3943 52.2801 39.7701C52.297 39.7851 52.3083 39.8019 52.3253 39.815C52.4061 39.9029 52.4871 39.9982 52.5661 40.0936C52.5849 40.116 52.6019 40.1366 52.6206 40.1628C52.6941 40.2582 52.7656 40.3591 52.837 40.462C52.8521 40.4826 52.8672 40.5068 52.8841 40.5311C52.9687 40.6583 53.0478 40.7892 53.1269 40.9238C53.8532 42.1673 55.0123 42.9097 56.0416 42.9115C57.0727 42.9097 58.2319 42.1673 58.9582 40.9238C59.0391 40.7854 59.12 40.6508 59.2047 40.5256C59.2178 40.5087 59.231 40.49 59.2424 40.4713C59.3139 40.3629 59.3872 40.26 59.4663 40.1591C59.4832 40.1385 59.4983 40.1179 59.5133 40.0992C59.5923 40.0001 59.677 39.9029 59.7617 39.8131C59.7661 39.8087 59.7705 39.8041 59.7749 39.7996C59.7836 39.7905 59.7924 39.7813 59.8012 39.7739C60.17 39.398 60.6103 39.1119 61.1862 38.9529L60.9302 38.8053H60.9152ZM56.2824 38.1302L58.5141 36.9615L59.31 32.3785L56.2824 33.3995V38.1302ZM52.7204 31.5763L56.0397 32.8796L59.359 31.5763C59.0786 30.9125 57.7765 30.3478 56.0397 30.346C54.3047 30.3478 53.0027 30.9125 52.7204 31.5763Z" fill="#333333"/>
<path d="M18.4886 86.8825V81.0063H21.9437V78.868H12.5178V81.0063H15.9728V86.8825H18.4886ZM25.3824 83.5319V78.868H22.9506V86.8825H25.0974L29.2903 82.2186V86.8825H31.7223V78.868H29.5755L25.3824 83.5319ZM39.9039 83.9023V86.8825H42.3359V78.868H39.9039V81.7976H35.996V78.868H33.5641V86.8825H35.996V83.9023H39.9039ZM49.1087 86.8825C49.6621 86.8825 50.1652 86.832 50.6348 86.6973C51.8928 86.3437 52.7146 85.3166 52.7146 83.9191C52.7146 82.589 52.0102 81.663 50.8864 81.242C50.3498 81.04 49.7124 81.0231 49.1087 81.0231H46.6096V78.868H44.1777V86.8825H49.1087ZM48.6893 82.9089C49.0247 82.9089 49.3434 82.9089 49.6286 83.01C50.0311 83.1446 50.2659 83.4813 50.2659 83.8854C50.2659 84.3064 50.0311 84.66 49.6453 84.8284C49.377 84.9462 49.1087 84.9462 48.6893 84.9462H46.6096V82.9089H48.6893ZM57.0751 83.8519L59.9766 86.8825H63.2136L59.1715 82.7068L63.0627 78.868H60.0101L57.0751 81.8819H56.4042V78.868H53.9722V86.8825H56.4042V83.8519H57.0751ZM68.2177 78.6491C64.9472 78.6491 62.9848 80.5012 62.9848 82.892C62.9848 85.283 64.9472 87.1351 68.2177 87.1351C71.4715 87.1351 73.4338 85.283 73.4338 82.892C73.4338 80.5012 71.4715 78.6491 68.2177 78.6491ZM68.2177 85.182C66.5909 85.182 65.5509 84.2054 65.5509 82.892C65.5509 81.5788 66.5909 80.619 68.2177 80.619C69.8278 80.619 70.8844 81.5788 70.8844 82.892C70.8844 84.2054 69.8278 85.182 68.2177 85.182ZM81.533 78.4133H79.1011V79.2215C76.0485 79.2889 74.2204 80.5853 74.2204 82.8753C74.2204 85.1651 76.0485 86.3606 79.1011 86.4279V87.2361H81.533V86.4279C84.6023 86.3606 86.4304 85.1651 86.4304 82.8753C86.4304 80.5853 84.6023 79.2889 81.533 79.2215V78.4133ZM79.1011 84.7105C77.4239 84.6432 76.6859 83.9528 76.6859 82.8753C76.6859 81.7976 77.4239 81.0231 79.1011 80.9558V84.7105ZM81.533 80.9558C83.227 81.0231 83.9482 81.7976 83.9482 82.8753C83.9482 83.9528 83.227 84.6432 81.533 84.7105V80.9558ZM94.5215 78.4133H92.0895V79.2215C89.0371 79.2889 87.2089 80.5853 87.2089 82.8753C87.2089 85.1651 89.0371 86.3606 92.0895 86.4279V87.2361H94.5215V86.4279C97.5908 86.3606 99.4193 85.1651 99.4193 82.8753C99.4193 80.5853 97.5908 79.2889 94.5215 79.2215V78.4133ZM92.0895 84.7105C90.4123 84.6432 89.6744 83.9528 89.6744 82.8753C89.6744 81.7976 90.4123 81.0231 92.0895 80.9558V84.7105ZM94.5215 80.9558C96.2151 81.0231 96.9371 81.7976 96.9371 82.8753C96.9371 83.9528 96.2151 84.6432 94.5215 84.7105V80.9558Z" fill="#333333"/>
</svg>
